<svg xmlns="http://www.w3.org/2000/svg" xmlns:xlink="http://www.w3.org/1999/xlink" width="500" zoomAndPan="magnify" viewBox="0 0 375 374.999991" height="500" preserveAspectRatio="xMidYMid meet" version="1.0"><defs><g/><clipPath id="c7332a849c"><path d="M 285 214 L 291.1875 214 L 291.1875 220.71875 L 285 220.71875 Z M 285 214 " clip-rule="nonzero"/></clipPath><clipPath id="f2efd5b6df"><path d="M 154 200.46875 L 288 200.46875 L 288 219 L 154 219 Z M 154 200.46875 " clip-rule="nonzero"/></clipPath></defs><rect x="-37.5" width="450" fill="#ffffff" y="-37.499999" height="449.999989" fill-opacity="1"/><rect x="-37.5" width="450" fill="#427898" y="-37.499999" height="449.999989" fill-opacity="1"/><g fill="#ffffff" fill-opacity="1"><g transform="translate(79.661366, 197.822053)"><g><path d="M 25.34375 -25.203125 C 25.34375 -22.097656 24.375 -19.6875 22.4375 -17.96875 C 20.507812 -16.257812 17.644531 -15.40625 13.84375 -15.40625 L 6.34375 -15.40625 L 6.34375 0 L 4.09375 0 L 4.09375 -35.09375 L 13.84375 -35.09375 C 17.71875 -35.09375 20.601562 -34.203125 22.5 -32.421875 C 24.394531 -30.640625 25.34375 -28.234375 25.34375 -25.203125 Z M 13.84375 -17.40625 C 20.007812 -17.40625 23.09375 -20.003906 23.09375 -25.203125 C 23.09375 -27.765625 22.359375 -29.71875 20.890625 -31.0625 C 19.429688 -32.414062 17.082031 -33.09375 13.84375 -33.09375 L 6.34375 -33.09375 L 6.34375 -17.40625 Z M 13.84375 -17.40625 "/></g></g></g><g fill="#ffffff" fill-opacity="1"><g transform="translate(108.457128, 197.822053)"><g><path d="M 6.34375 -37 L 6.34375 0 L 4.09375 0 L 4.09375 -37 Z M 6.34375 -37 "/></g></g></g><g fill="#ffffff" fill-opacity="1"><g transform="translate(120.455493, 197.822053)"><g><path d="M 2.703125 -13.59375 C 2.703125 -16.394531 3.257812 -18.84375 4.375 -20.9375 C 5.488281 -23.039062 7.035156 -24.660156 9.015625 -25.796875 C 11.003906 -26.929688 13.265625 -27.5 15.796875 -27.5 C 18.660156 -27.5 21.09375 -26.796875 23.09375 -25.390625 C 25.09375 -23.992188 26.492188 -22.210938 27.296875 -20.046875 L 27.296875 -27.15625 L 29.546875 -27.15625 L 29.546875 0 L 27.296875 0 L 27.296875 -7.15625 C 26.492188 -4.945312 25.082031 -3.132812 23.0625 -1.71875 C 21.050781 -0.300781 18.628906 0.40625 15.796875 0.40625 C 13.265625 0.40625 11.003906 -0.164062 9.015625 -1.3125 C 7.035156 -2.46875 5.488281 -4.101562 4.375 -6.21875 C 3.257812 -8.34375 2.703125 -10.800781 2.703125 -13.59375 Z M 27.296875 -13.59375 C 27.296875 -15.96875 26.800781 -18.0625 25.8125 -19.875 C 24.832031 -21.6875 23.492188 -23.082031 21.796875 -24.0625 C 20.097656 -25.050781 18.195312 -25.546875 16.09375 -25.546875 C 13.894531 -25.546875 11.960938 -25.070312 10.296875 -24.125 C 8.628906 -23.175781 7.328125 -21.800781 6.390625 -20 C 5.460938 -18.195312 5 -16.0625 5 -13.59375 C 5 -11.132812 5.460938 -9.003906 6.390625 -7.203125 C 7.328125 -5.398438 8.632812 -4.015625 10.3125 -3.046875 C 12 -2.078125 13.925781 -1.59375 16.09375 -1.59375 C 18.195312 -1.59375 20.109375 -2.082031 21.828125 -3.0625 C 23.546875 -4.050781 24.882812 -5.453125 25.84375 -7.265625 C 26.8125 -9.085938 27.296875 -11.195312 27.296875 -13.59375 Z M 27.296875 -13.59375 "/></g></g></g><g fill="#ffffff" fill-opacity="1"><g transform="translate(155.600279, 197.822053)"><g><path d="M 16.34375 -27.703125 C 19.582031 -27.703125 22.21875 -26.707031 24.25 -24.71875 C 26.28125 -22.738281 27.296875 -19.800781 27.296875 -15.90625 L 27.296875 0 L 25.09375 0 L 25.09375 -15.75 C 25.09375 -18.976562 24.273438 -21.453125 22.640625 -23.171875 C 21.015625 -24.890625 18.800781 -25.75 16 -25.75 C 13.0625 -25.75 10.71875 -24.816406 8.96875 -22.953125 C 7.21875 -21.085938 6.34375 -18.320312 6.34375 -14.65625 L 6.34375 0 L 4.09375 0 L 4.09375 -27.15625 L 6.34375 -27.15625 L 6.34375 -21.40625 C 7.113281 -23.4375 8.390625 -24.992188 10.171875 -26.078125 C 11.953125 -27.160156 14.007812 -27.703125 16.34375 -27.703125 Z M 16.34375 -27.703125 "/></g></g></g><g fill="#ffffff" fill-opacity="1"><g transform="translate(188.245442, 197.822053)"><g><path d="M 18.203125 0 L 6.34375 -12.453125 L 6.34375 0 L 4.09375 0 L 4.09375 -37 L 6.34375 -37 L 6.34375 -14.84375 L 18 -27.15625 L 21.15625 -27.15625 L 8 -13.65625 L 21.296875 0 Z M 18.203125 0 "/></g></g></g><g fill="#ffffff" fill-opacity="1"><g transform="translate(211.592051, 197.822053)"><g><path d="M 7.453125 -25.203125 L 7.453125 -7.25 C 7.453125 -5.25 7.816406 -3.875 8.546875 -3.125 C 9.285156 -2.375 10.585938 -2 12.453125 -2 L 15.5 -2 L 15.5 0 L 12.09375 0 C 9.726562 0 7.988281 -0.554688 6.875 -1.671875 C 5.757812 -2.785156 5.203125 -4.644531 5.203125 -7.25 L 5.203125 -25.203125 L 1.09375 -25.203125 L 1.09375 -27.15625 L 5.203125 -27.15625 L 5.203125 -34.046875 L 7.453125 -34.046875 L 7.453125 -27.15625 L 15.5 -27.15625 L 15.5 -25.203125 Z M 7.453125 -25.203125 "/></g></g></g><g fill="#ffffff" fill-opacity="1"><g transform="translate(230.439359, 197.822053)"><g><path d="M 16.046875 0.40625 C 13.515625 0.40625 11.234375 -0.160156 9.203125 -1.296875 C 7.171875 -2.429688 5.578125 -4.054688 4.421875 -6.171875 C 3.273438 -8.285156 2.703125 -10.757812 2.703125 -13.59375 C 2.703125 -16.394531 3.285156 -18.851562 4.453125 -20.96875 C 5.617188 -23.09375 7.222656 -24.710938 9.265625 -25.828125 C 11.316406 -26.941406 13.613281 -27.5 16.15625 -27.5 C 18.6875 -27.5 20.96875 -26.941406 23 -25.828125 C 25.03125 -24.710938 26.617188 -23.101562 27.765625 -21 C 28.921875 -18.894531 29.5 -16.425781 29.5 -13.59375 C 29.5 -10.757812 28.914062 -8.285156 27.75 -6.171875 C 26.582031 -4.054688 24.972656 -2.429688 22.921875 -1.296875 C 20.867188 -0.160156 18.578125 0.40625 16.046875 0.40625 Z M 16.046875 -1.59375 C 18.015625 -1.59375 19.859375 -2.035156 21.578125 -2.921875 C 23.296875 -3.804688 24.671875 -5.148438 25.703125 -6.953125 C 26.734375 -8.753906 27.25 -10.96875 27.25 -13.59375 C 27.25 -16.195312 26.734375 -18.398438 25.703125 -20.203125 C 24.671875 -22.003906 23.300781 -23.34375 21.59375 -24.21875 C 19.894531 -25.101562 18.0625 -25.546875 16.09375 -25.546875 C 14.132812 -25.546875 12.3125 -25.101562 10.625 -24.21875 C 8.9375 -23.34375 7.578125 -22.003906 6.546875 -20.203125 C 5.515625 -18.398438 5 -16.195312 5 -13.59375 C 5 -10.96875 5.503906 -8.753906 6.515625 -6.953125 C 7.535156 -5.148438 8.882812 -3.804688 10.5625 -2.921875 C 12.25 -2.035156 14.078125 -1.59375 16.046875 -1.59375 Z M 16.046875 -1.59375 "/></g></g></g><g fill="#ffffff" fill-opacity="1"><g transform="translate(264.184356, 197.822053)"><g><path d="M 16.34375 -27.703125 C 19.582031 -27.703125 22.21875 -26.707031 24.25 -24.71875 C 26.28125 -22.738281 27.296875 -19.800781 27.296875 -15.90625 L 27.296875 0 L 25.09375 0 L 25.09375 -15.75 C 25.09375 -18.976562 24.273438 -21.453125 22.640625 -23.171875 C 21.015625 -24.890625 18.800781 -25.75 16 -25.75 C 13.0625 -25.75 10.71875 -24.816406 8.96875 -22.953125 C 7.21875 -21.085938 6.34375 -18.320312 6.34375 -14.65625 L 6.34375 0 L 4.09375 0 L 4.09375 -27.15625 L 6.34375 -27.15625 L 6.34375 -21.40625 C 7.113281 -23.4375 8.390625 -24.992188 10.171875 -26.078125 C 11.953125 -27.160156 14.007812 -27.703125 16.34375 -27.703125 Z M 16.34375 -27.703125 "/></g></g></g><g clip-path="url(#c7332a849c)"><path fill="#ffffff" d="M 291.238281 217.59375 C 291.238281 218 291.164062 218.394531 291.007812 218.769531 C 290.855469 219.148438 290.636719 219.480469 290.351562 219.769531 C 290.066406 220.058594 289.738281 220.28125 289.367188 220.4375 C 288.996094 220.59375 288.609375 220.671875 288.207031 220.671875 C 287.804688 220.671875 287.417969 220.59375 287.042969 220.4375 C 286.671875 220.28125 286.34375 220.058594 286.058594 219.769531 C 285.777344 219.480469 285.558594 219.148438 285.402344 218.769531 C 285.25 218.394531 285.171875 218 285.171875 217.59375 C 285.171875 217.183594 285.25 216.789062 285.402344 216.414062 C 285.558594 216.035156 285.777344 215.703125 286.058594 215.414062 C 286.34375 215.125 286.671875 214.902344 287.042969 214.746094 C 287.417969 214.589844 287.804688 214.511719 288.207031 214.511719 C 288.609375 214.511719 288.996094 214.589844 289.367188 214.746094 C 289.738281 214.902344 290.066406 215.125 290.351562 215.414062 C 290.636719 215.703125 290.855469 216.035156 291.007812 216.414062 C 291.164062 216.789062 291.238281 217.183594 291.238281 217.59375 Z M 291.238281 217.59375 " fill-opacity="1" fill-rule="nonzero"/></g><g clip-path="url(#f2efd5b6df)"><path fill="#ffffff" d="M 287.488281 218.042969 L 229.269531 218.160156 L 229.082031 218.160156 L 228.945312 218.035156 L 210.863281 201.160156 L 211.136719 201.269531 C 206.378906 201.257812 201.621094 201.253906 196.863281 201.253906 C 192.105469 201.253906 187.347656 201.265625 182.589844 201.289062 C 177.832031 201.308594 173.074219 201.324219 168.3125 201.328125 C 163.554688 201.332031 158.796875 201.324219 154.039062 201.308594 C 158.796875 201.25 163.554688 201.191406 168.3125 201.125 C 173.070312 201.058594 177.828125 200.980469 182.585938 200.886719 C 187.34375 200.800781 192.101562 200.722656 196.859375 200.652344 C 201.617188 200.582031 206.375 200.519531 211.132812 200.46875 L 211.289062 200.46875 L 211.40625 200.574219 L 229.589844 217.335938 L 229.265625 217.210938 L 287.480469 216.738281 Z M 287.488281 218.042969 " fill-opacity="1" fill-rule="nonzero"/></g><path fill="#a6a6a6" d="M 252.46875 209.863281 C 252.46875 210.269531 252.390625 210.664062 252.238281 211.039062 C 252.082031 211.417969 251.863281 211.75 251.578125 212.039062 C 251.292969 212.328125 250.964844 212.550781 250.59375 212.707031 C 250.222656 212.863281 249.835938 212.941406 249.433594 212.941406 C 249.03125 212.941406 248.644531 212.863281 248.273438 212.707031 C 247.902344 212.550781 247.574219 212.328125 247.289062 212.039062 C 247.003906 211.75 246.785156 211.417969 246.628906 211.039062 C 246.476562 210.664062 246.398438 210.269531 246.398438 209.863281 C 246.398438 209.453125 246.476562 209.058594 246.628906 208.683594 C 246.785156 208.304688 247.003906 207.972656 247.289062 207.683594 C 247.574219 207.394531 247.902344 207.171875 248.273438 207.015625 C 248.644531 206.859375 249.03125 206.78125 249.433594 206.78125 C 249.835938 206.78125 250.222656 206.859375 250.59375 207.015625 C 250.964844 207.171875 251.292969 207.394531 251.578125 207.683594 C 251.863281 207.972656 252.082031 208.304688 252.238281 208.683594 C 252.390625 209.058594 252.46875 209.453125 252.46875 209.863281 Z M 252.46875 209.863281 " fill-opacity="1" fill-rule="nonzero"/><path fill="#a6a6a6" d="M 249.257812 210.625 L 162.957031 209.976562 L 249.257812 209.324219 Z M 249.257812 210.625 " fill-opacity="1" fill-rule="nonzero"/><g fill="#ffffff" fill-opacity="1"><g transform="translate(82.691988, 218.69789)"><g><path d="M 4.5625 0.109375 C 3.832031 0.109375 3.195312 -0.015625 2.65625 -0.265625 C 2.113281 -0.523438 1.6875 -0.875 1.375 -1.3125 C 1.070312 -1.75 0.898438 -2.234375 0.859375 -2.765625 L 1.609375 -2.765625 C 1.703125 -2.179688 1.976562 -1.660156 2.4375 -1.203125 C 2.90625 -0.742188 3.613281 -0.515625 4.5625 -0.515625 C 5.113281 -0.515625 5.59375 -0.613281 6 -0.8125 C 6.414062 -1.019531 6.734375 -1.296875 6.953125 -1.640625 C 7.179688 -1.992188 7.296875 -2.382812 7.296875 -2.8125 C 7.296875 -3.351562 7.164062 -3.785156 6.90625 -4.109375 C 6.644531 -4.429688 6.316406 -4.671875 5.921875 -4.828125 C 5.535156 -4.992188 5.015625 -5.164062 4.359375 -5.34375 C 3.628906 -5.53125 3.039062 -5.71875 2.59375 -5.90625 C 2.15625 -6.101562 1.785156 -6.398438 1.484375 -6.796875 C 1.179688 -7.203125 1.03125 -7.753906 1.03125 -8.453125 C 1.03125 -8.984375 1.171875 -9.46875 1.453125 -9.90625 C 1.734375 -10.351562 2.132812 -10.703125 2.65625 -10.953125 C 3.175781 -11.210938 3.78125 -11.34375 4.46875 -11.34375 C 5.457031 -11.34375 6.253906 -11.097656 6.859375 -10.609375 C 7.472656 -10.117188 7.835938 -9.515625 7.953125 -8.796875 L 7.1875 -8.796875 C 7.125 -9.085938 6.984375 -9.378906 6.765625 -9.671875 C 6.546875 -9.972656 6.234375 -10.222656 5.828125 -10.421875 C 5.429688 -10.617188 4.957031 -10.71875 4.40625 -10.71875 C 3.65625 -10.71875 3.023438 -10.507812 2.515625 -10.09375 C 2.003906 -9.6875 1.75 -9.144531 1.75 -8.46875 C 1.75 -7.914062 1.878906 -7.476562 2.140625 -7.15625 C 2.410156 -6.832031 2.738281 -6.585938 3.125 -6.421875 C 3.519531 -6.253906 4.046875 -6.085938 4.703125 -5.921875 C 5.441406 -5.710938 6.023438 -5.515625 6.453125 -5.328125 C 6.890625 -5.148438 7.257812 -4.859375 7.5625 -4.453125 C 7.863281 -4.054688 8.015625 -3.515625 8.015625 -2.828125 C 8.015625 -2.328125 7.878906 -1.851562 7.609375 -1.40625 C 7.347656 -0.957031 6.957031 -0.59375 6.4375 -0.3125 C 5.914062 -0.03125 5.289062 0.109375 4.5625 0.109375 Z M 4.5625 0.109375 "/></g></g></g><g fill="#ffffff" fill-opacity="1"><g transform="translate(97.954087, 218.69789)"><g><path d="M 5.140625 0.125 C 4.328125 0.125 3.59375 -0.0507812 2.9375 -0.40625 C 2.289062 -0.769531 1.78125 -1.289062 1.40625 -1.96875 C 1.039062 -2.644531 0.859375 -3.441406 0.859375 -4.359375 C 0.859375 -5.253906 1.046875 -6.039062 1.421875 -6.71875 C 1.796875 -7.394531 2.3125 -7.910156 2.96875 -8.265625 C 3.625 -8.617188 4.359375 -8.796875 5.171875 -8.796875 C 5.984375 -8.796875 6.710938 -8.617188 7.359375 -8.265625 C 8.015625 -7.910156 8.523438 -7.394531 8.890625 -6.71875 C 9.253906 -6.050781 9.4375 -5.265625 9.4375 -4.359375 C 9.4375 -3.441406 9.25 -2.644531 8.875 -1.96875 C 8.5 -1.289062 7.984375 -0.769531 7.328125 -0.40625 C 6.679688 -0.0507812 5.953125 0.125 5.140625 0.125 Z M 5.140625 -0.515625 C 5.765625 -0.515625 6.351562 -0.65625 6.90625 -0.9375 C 7.457031 -1.21875 7.894531 -1.644531 8.21875 -2.21875 C 8.550781 -2.800781 8.71875 -3.515625 8.71875 -4.359375 C 8.71875 -5.179688 8.550781 -5.878906 8.21875 -6.453125 C 7.894531 -7.035156 7.457031 -7.46875 6.90625 -7.75 C 6.363281 -8.03125 5.78125 -8.171875 5.15625 -8.171875 C 4.519531 -8.171875 3.929688 -8.03125 3.390625 -7.75 C 2.859375 -7.46875 2.425781 -7.035156 2.09375 -6.453125 C 1.757812 -5.878906 1.59375 -5.179688 1.59375 -4.359375 C 1.59375 -3.515625 1.753906 -2.800781 2.078125 -2.21875 C 2.410156 -1.644531 2.84375 -1.21875 3.375 -0.9375 C 3.914062 -0.65625 4.503906 -0.515625 5.140625 -0.515625 Z M 5.140625 -0.515625 "/></g></g></g><g fill="#ffffff" fill-opacity="1"><g transform="translate(114.67184, 218.69789)"><g><path d="M 2.03125 -11.84375 L 2.03125 0 L 1.3125 0 L 1.3125 -11.84375 Z M 2.03125 -11.84375 "/></g></g></g><g fill="#ffffff" fill-opacity="1"><g transform="translate(124.431266, 218.69789)"><g><path d="M 8.65625 -8.6875 L 8.65625 0 L 7.9375 0 L 7.9375 -1.890625 C 7.6875 -1.222656 7.273438 -0.71875 6.703125 -0.375 C 6.140625 -0.03125 5.488281 0.140625 4.75 0.140625 C 3.71875 0.140625 2.875 -0.175781 2.21875 -0.8125 C 1.5625 -1.445312 1.234375 -2.382812 1.234375 -3.625 L 1.234375 -8.6875 L 1.9375 -8.6875 L 1.9375 -3.6875 C 1.9375 -2.644531 2.195312 -1.847656 2.71875 -1.296875 C 3.238281 -0.753906 3.945312 -0.484375 4.84375 -0.484375 C 5.78125 -0.484375 6.53125 -0.78125 7.09375 -1.375 C 7.65625 -1.96875 7.9375 -2.851562 7.9375 -4.03125 L 7.9375 -8.6875 Z M 8.65625 -8.6875 "/></g></g></g><g fill="#ffffff" fill-opacity="1"><g transform="translate(140.797101, 218.69789)"><g><path d="M 2.390625 -8.0625 L 2.390625 -2.3125 C 2.390625 -1.675781 2.503906 -1.238281 2.734375 -1 C 2.972656 -0.757812 3.390625 -0.640625 3.984375 -0.640625 L 4.953125 -0.640625 L 4.953125 0 L 3.875 0 C 3.113281 0 2.550781 -0.175781 2.1875 -0.53125 C 1.832031 -0.894531 1.65625 -1.488281 1.65625 -2.3125 L 1.65625 -8.0625 L 0.359375 -8.0625 L 0.359375 -8.6875 L 1.65625 -8.6875 L 1.65625 -10.890625 L 2.390625 -10.890625 L 2.390625 -8.6875 L 4.953125 -8.6875 L 4.953125 -8.0625 Z M 2.390625 -8.0625 "/></g></g></g><g fill="#ffffff" fill-opacity="1"><g transform="translate(152.747999, 218.69789)"><g><path d="M 1.6875 -10.625 C 1.507812 -10.625 1.363281 -10.675781 1.25 -10.78125 C 1.132812 -10.894531 1.078125 -11.050781 1.078125 -11.25 C 1.078125 -11.425781 1.132812 -11.570312 1.25 -11.6875 C 1.363281 -11.8125 1.507812 -11.875 1.6875 -11.875 C 1.851562 -11.875 1.992188 -11.8125 2.109375 -11.6875 C 2.222656 -11.570312 2.28125 -11.425781 2.28125 -11.25 C 2.28125 -11.050781 2.222656 -10.894531 2.109375 -10.78125 C 1.992188 -10.675781 1.851562 -10.625 1.6875 -10.625 Z M 2.03125 -8.6875 L 2.03125 0 L 1.3125 0 L 1.3125 -8.6875 Z M 2.03125 -8.6875 "/></g></g></g><g fill="#ffffff" fill-opacity="1"><g transform="translate(162.507423, 218.69789)"><g><path d="M 5.140625 0.125 C 4.328125 0.125 3.59375 -0.0507812 2.9375 -0.40625 C 2.289062 -0.769531 1.78125 -1.289062 1.40625 -1.96875 C 1.039062 -2.644531 0.859375 -3.441406 0.859375 -4.359375 C 0.859375 -5.253906 1.046875 -6.039062 1.421875 -6.71875 C 1.796875 -7.394531 2.3125 -7.910156 2.96875 -8.265625 C 3.625 -8.617188 4.359375 -8.796875 5.171875 -8.796875 C 5.984375 -8.796875 6.710938 -8.617188 7.359375 -8.265625 C 8.015625 -7.910156 8.523438 -7.394531 8.890625 -6.71875 C 9.253906 -6.050781 9.4375 -5.265625 9.4375 -4.359375 C 9.4375 -3.441406 9.25 -2.644531 8.875 -1.96875 C 8.5 -1.289062 7.984375 -0.769531 7.328125 -0.40625 C 6.679688 -0.0507812 5.953125 0.125 5.140625 0.125 Z M 5.140625 -0.515625 C 5.765625 -0.515625 6.351562 -0.65625 6.90625 -0.9375 C 7.457031 -1.21875 7.894531 -1.644531 8.21875 -2.21875 C 8.550781 -2.800781 8.71875 -3.515625 8.71875 -4.359375 C 8.71875 -5.179688 8.550781 -5.878906 8.21875 -6.453125 C 7.894531 -7.035156 7.457031 -7.46875 6.90625 -7.75 C 6.363281 -8.03125 5.78125 -8.171875 5.15625 -8.171875 C 4.519531 -8.171875 3.929688 -8.03125 3.390625 -7.75 C 2.859375 -7.46875 2.425781 -7.035156 2.09375 -6.453125 C 1.757812 -5.878906 1.59375 -5.179688 1.59375 -4.359375 C 1.59375 -3.515625 1.753906 -2.800781 2.078125 -2.21875 C 2.410156 -1.644531 2.84375 -1.21875 3.375 -0.9375 C 3.914062 -0.65625 4.503906 -0.515625 5.140625 -0.515625 Z M 5.140625 -0.515625 "/></g></g></g><g fill="#ffffff" fill-opacity="1"><g transform="translate(179.225174, 218.69789)"><g><path d="M 5.234375 -8.859375 C 6.265625 -8.859375 7.101562 -8.539062 7.75 -7.90625 C 8.40625 -7.269531 8.734375 -6.332031 8.734375 -5.09375 L 8.734375 0 L 8.03125 0 L 8.03125 -5.046875 C 8.03125 -6.078125 7.769531 -6.863281 7.25 -7.40625 C 6.726562 -7.957031 6.019531 -8.234375 5.125 -8.234375 C 4.1875 -8.234375 3.4375 -7.9375 2.875 -7.34375 C 2.3125 -6.75 2.03125 -5.863281 2.03125 -4.6875 L 2.03125 0 L 1.3125 0 L 1.3125 -8.6875 L 2.03125 -8.6875 L 2.03125 -6.84375 C 2.28125 -7.5 2.6875 -8 3.25 -8.34375 C 3.820312 -8.6875 4.484375 -8.859375 5.234375 -8.859375 Z M 5.234375 -8.859375 "/></g></g></g><g fill="#ffffff" fill-opacity="1"><g transform="translate(195.591014, 218.69789)"><g><path d="M 4.203125 0.125 C 3.234375 0.125 2.441406 -0.0859375 1.828125 -0.515625 C 1.210938 -0.941406 0.867188 -1.550781 0.796875 -2.34375 L 1.53125 -2.34375 C 1.582031 -1.769531 1.84375 -1.316406 2.3125 -0.984375 C 2.78125 -0.660156 3.410156 -0.5 4.203125 -0.5 C 4.867188 -0.5 5.394531 -0.664062 5.78125 -1 C 6.175781 -1.332031 6.375 -1.742188 6.375 -2.234375 C 6.375 -2.578125 6.269531 -2.859375 6.0625 -3.078125 C 5.851562 -3.296875 5.59375 -3.460938 5.28125 -3.578125 C 4.96875 -3.703125 4.546875 -3.832031 4.015625 -3.96875 C 3.378906 -4.132812 2.863281 -4.300781 2.46875 -4.46875 C 2.070312 -4.632812 1.734375 -4.882812 1.453125 -5.21875 C 1.179688 -5.550781 1.046875 -5.992188 1.046875 -6.546875 C 1.046875 -6.953125 1.164062 -7.328125 1.40625 -7.671875 C 1.65625 -8.015625 2 -8.285156 2.4375 -8.484375 C 2.875 -8.691406 3.367188 -8.796875 3.921875 -8.796875 C 4.828125 -8.796875 5.554688 -8.566406 6.109375 -8.109375 C 6.671875 -7.660156 6.976562 -7.035156 7.03125 -6.234375 L 6.296875 -6.234375 C 6.265625 -6.816406 6.039062 -7.285156 5.625 -7.640625 C 5.21875 -8.003906 4.644531 -8.1875 3.90625 -8.1875 C 3.28125 -8.1875 2.765625 -8.023438 2.359375 -7.703125 C 1.960938 -7.390625 1.765625 -7.003906 1.765625 -6.546875 C 1.765625 -6.140625 1.878906 -5.8125 2.109375 -5.5625 C 2.335938 -5.3125 2.617188 -5.117188 2.953125 -4.984375 C 3.285156 -4.847656 3.726562 -4.707031 4.28125 -4.5625 C 4.894531 -4.394531 5.382812 -4.234375 5.75 -4.078125 C 6.113281 -3.929688 6.425781 -3.707031 6.6875 -3.40625 C 6.945312 -3.113281 7.078125 -2.722656 7.078125 -2.234375 C 7.078125 -1.785156 6.953125 -1.378906 6.703125 -1.015625 C 6.460938 -0.660156 6.125 -0.378906 5.6875 -0.171875 C 5.25 0.0234375 4.753906 0.125 4.203125 0.125 Z M 4.203125 0.125 "/></g></g></g></svg>